<svg xmlns="http://www.w3.org/2000/svg" width="92.01958397694462" height="733" viewBox="0 0 92 732.844" >
  <path fill="#01bcd4" d="M598.562,876.037a45.987,45.987,0,1,0,45.988,45.986A46.037,46.037,0,0,0,598.562,876.037Zm0-213.623A45.987,45.987,0,1,0,644.55,708.4,46.038,46.038,0,0,0,598.562,662.414Zm0-213.622A45.987,45.987,0,1,0,644.55,494.78,46.039,46.039,0,0,0,598.562,448.792Zm0-121.647a45.987,45.987,0,1,0-45.986-45.988A46.041,46.041,0,0,0,598.562,327.145Z" transform="translate(-552.562 -235.156)"/>
</svg>