<svg xmlns="http://www.w3.org/2000/svg" width="844" height="784.57704523261" viewBox="0 0 843.816 784.406" >
  <path fill="#545454" d="M713.667,593.658l-57.642-57.642A71.808,71.808,0,1,0,527.37,502.042L423.626,559.6a72.2,72.2,0,0,0-32-26.075L549.907,332.137a71.606,71.606,0,0,0,100.407-3.048l118.819,118.69a71.6,71.6,0,0,0-.059,90.47Zm-55.23,113.015A59.874,59.874,0,1,1,598.562,646.8,59.942,59.942,0,0,1,658.437,706.673ZM538.689,493.052a59.874,59.874,0,1,1,59.873,59.873A59.942,59.942,0,0,1,538.689,493.052ZM429.467,569.974l100.506-55.765A71.711,71.711,0,0,0,648.1,544.92l57.153,57.153-54.939,54.94a71.706,71.706,0,0,0-120.526,29.159L429.193,630.359A71.561,71.561,0,0,0,429.467,569.974Zm337.67,93.985a71.619,71.619,0,0,0,2.178,88.219L650.516,870.85A71.624,71.624,0,0,0,550.3,867.215L392.15,665.989a72.186,72.186,0,0,0,31.089-25.323L527.28,698.392a71.773,71.773,0,1,0,130.585-32.1l55.8-55.8ZM824.78,646.8a59.874,59.874,0,1,1-59.874,59.873A59.942,59.942,0,0,1,824.78,646.8ZM658.437,920.3a59.874,59.874,0,1,1-59.875-59.875A59.941,59.941,0,0,1,658.437,920.3Zm-294.2-260.561a59.874,59.874,0,1,1,59.872-59.872A59.941,59.941,0,0,1,364.237,659.736Zm174.452-380.3A59.874,59.874,0,1,1,598.562,339.3,59.942,59.942,0,0,1,538.689,279.431ZM824.78,433.179a59.873,59.873,0,1,1-59.874,59.873A59.941,59.941,0,0,1,824.78,433.179Zm0,131.648a71.776,71.776,0,1,0-47.386-125.618l-119.527-119.4a71.784,71.784,0,1,0-116.1,3.427L379.475,529.73a71.779,71.779,0,1,0,.58,140.131L542.108,876.052a71.762,71.762,0,1,0,115.93,4.105L777.615,760.71a71.775,71.775,0,1,0-2.591-105.7l-52.942-52.942,55.24-55.24A71.463,71.463,0,0,0,824.78,564.827Zm152.2,110.8,23.367,25.741H923.984v11.9h76.026l-22.952,24.373,8.664,8.16,36.178-38.411-36.1-39.767Zm0.075-151.606,8.664,8.16,36.178-38.409L985.8,454l-8.815,8,23.367,25.743H923.984v11.9h76.026ZM231.081,568.169l23.37,25.743H178.082v11.9h76.029l-22.954,24.371,8.664,8.16L276,599.937l-36.1-39.769Z" transform="translate(-178.094 -207.656)"/>
</svg>